<svg t="1650011758077" class="icon" viewBox="0 0 1024 1024" version="1.1" xmlns="http://www.w3.org/2000/svg" p-id="45847" data-darkreader-inline-fill="" width="200" height="200"><path d="M512 512m-512 0a512 512 0 1 0 1024 0 512 512 0 1 0-1024 0Z" fill="#65BDDB" p-id="45848" data-darkreader-inline-fill="" style="--darkreader-inline-fill:#2f7086;"></path><path d="M550.24 695.2l149.28 90.24-39.52-169.92a74.08 74.08 0 0 1 23.68-72.8L816 428.48l-173.6-14.72a74.24 74.24 0 0 1-62.08-44.96l-68.32-160-67.84 160a74.24 74.24 0 0 1-62.08 44.96L208 428.48l131.84 114.24a74.08 74.08 0 0 1 23.68 72.8l-39.04 169.92 149.28-90.24a74.56 74.56 0 0 1 76.48 0z" fill="#FFFFFF" p-id="45849" data-darkreader-inline-fill="" style="--darkreader-inline-fill:#1f2021;"></path></svg>